<?xml version="1.0" encoding="UTF-8"?>
<svg version="1.1" xmlns="http://www.w3.org/2000/svg" width="1024" height="1024">
<path d="M0 0 C337.92 0 675.84 0 1024 0 C1024 337.92 1024 675.84 1024 1024 C686.08 1024 348.16 1024 0 1024 C0 686.08 0 348.16 0 0 Z " fill="#FED834" transform="translate(0,0)"/>
<path d="M0 0 C0.6677092 -0.00335861 1.3354184 -0.00671722 2.02336121 -0.01017761 C4.20984812 -0.01960199 6.39625776 -0.02162644 8.58276367 -0.02270508 C10.11822032 -0.02592369 11.65367667 -0.02928821 13.18913269 -0.03279114 C16.40083527 -0.03876123 19.61251102 -0.04063324 22.82421875 -0.04003906 C26.91588552 -0.03993759 31.0073782 -0.05358392 35.09900379 -0.07081127 C38.26910677 -0.08199424 41.4391685 -0.08395634 44.60928917 -0.08342934 C46.11659024 -0.08460021 47.6238927 -0.0889711 49.13117409 -0.0967617 C63.85661219 -0.16574709 75.89150172 0.89677688 87.11401367 11.14916992 C90.1237456 14.44247402 92.06705911 18.12148041 93.93823242 22.14526367 C94.35073242 23.03213867 94.76323242 23.91901367 95.18823242 24.83276367 C97.18636489 30.99367212 97.05960664 37.12120978 97.00073242 43.52026367 C96.98010742 46.69651367 96.95948242 49.87276367 96.93823242 53.14526367 C86.70823242 53.14526367 76.47823242 53.14526367 65.93823242 53.14526367 C65.93823242 58.42526367 65.93823242 63.70526367 65.93823242 69.14526367 C67.79706055 69.25612305 69.65588867 69.36698242 71.57104492 69.48120117 C78.78654263 70.04134395 85.739471 71.27163432 92.81323242 72.77026367 C94.7067041 73.17003418 94.7067041 73.17003418 96.63842773 73.57788086 C152.29563698 85.66994676 202.06226536 113.77162925 242.93823242 153.14526367 C243.49140137 153.67651855 244.04457031 154.20777344 244.61450195 154.75512695 C251.94225736 161.83070839 258.62714335 169.13544875 264.93823242 177.14526367 C265.85618643 178.25290806 266.77691026 179.35826106 267.69995117 180.46166992 C302.4150532 222.2910405 324.16588991 275.43449511 330.93823242 329.14526367 C331.05537598 330.05711426 331.17251953 330.96896484 331.29321289 331.90844727 C340.94434736 410.79535773 318.68359338 490.74444449 270.82885742 553.93041992 C268.90672545 556.37279836 266.93345498 558.76229031 264.93823242 561.14526367 C264.1519043 562.11592773 263.36557617 563.0865918 262.55541992 564.08666992 C256.08730894 571.9539661 249.05476701 579.24202863 241.87573242 586.45776367 C240.9661377 587.37654297 240.05654297 588.29532227 239.11938477 589.24194336 C233.03299695 595.30097909 226.67855475 600.82754781 219.93823242 606.14526367 C219.2331958 606.70963135 218.52815918 607.27399902 217.80175781 607.85546875 C163.48509837 651.10649204 97.30650016 674.42978687 27.93823242 674.33276367 C26.63965805 674.3313588 26.63965805 674.3313588 25.31484985 674.32992554 C-57.96016344 674.13473094 -134.37161878 637.64831781 -192.87426758 579.45776367 C-197.12170903 575.15586784 -201.20664677 570.80124461 -205.06176758 566.14526367 C-205.47475098 565.6513916 -205.88773437 565.15751953 -206.31323242 564.64868164 C-257.77973429 502.84171235 -282.82802123 422.70171113 -276.5480957 342.64013672 C-271.23119197 286.51055073 -251.20520607 230.58942312 -216.06176758 186.14526367 C-215.43141602 185.33444336 -214.80106445 184.52362305 -214.15161133 183.68823242 C-212.15238385 181.14711988 -210.11733183 178.64104611 -208.06176758 176.14526367 C-207.42247314 175.36844238 -207.42247314 175.36844238 -206.77026367 174.57592773 C-196.8003873 162.52767502 -186.05572983 151.20398999 -174.06176758 141.14526367 C-173.15813477 140.35249023 -172.25450195 139.5597168 -171.32348633 138.74291992 C-129.80962048 102.51118918 -67.62890057 69.14526367 -11.06176758 69.14526367 C-11.06176758 63.86526367 -11.06176758 58.58526367 -11.06176758 53.14526367 C-20.63176758 53.14526367 -30.20176758 53.14526367 -40.06176758 53.14526367 C-40.80522547 22.66349016 -40.80522547 22.66349016 -30.06176758 11.14526367 C-21.56277336 2.36024561 -12.01491567 0.0382343 0 0 Z " fill="#FED934" transform="translate(484.061767578125,169.854736328125)"/>
<path d="M0 0 C0.6677092 -0.00335861 1.3354184 -0.00671722 2.02336121 -0.01017761 C4.20984812 -0.01960199 6.39625776 -0.02162644 8.58276367 -0.02270508 C10.11822032 -0.02592369 11.65367667 -0.02928821 13.18913269 -0.03279114 C16.40083527 -0.03876123 19.61251102 -0.04063324 22.82421875 -0.04003906 C26.91588552 -0.03993759 31.0073782 -0.05358392 35.09900379 -0.07081127 C38.26910677 -0.08199424 41.4391685 -0.08395634 44.60928917 -0.08342934 C46.11659024 -0.08460021 47.6238927 -0.0889711 49.13117409 -0.0967617 C63.85661219 -0.16574709 75.89150172 0.89677688 87.11401367 11.14916992 C90.1237456 14.44247402 92.06705911 18.12148041 93.93823242 22.14526367 C94.35073242 23.03213867 94.76323242 23.91901367 95.18823242 24.83276367 C97.18636489 30.99367212 97.05960664 37.12120978 97.00073242 43.52026367 C96.98010742 46.69651367 96.95948242 49.87276367 96.93823242 53.14526367 C86.70823242 53.14526367 76.47823242 53.14526367 65.93823242 53.14526367 C65.93823242 58.42526367 65.93823242 63.70526367 65.93823242 69.14526367 C67.79706055 69.25612305 69.65588867 69.36698242 71.57104492 69.48120117 C78.78654263 70.04134395 85.739471 71.27163432 92.81323242 72.77026367 C94.7067041 73.17003418 94.7067041 73.17003418 96.63842773 73.57788086 C152.29563698 85.66994676 202.06226536 113.77162925 242.93823242 153.14526367 C243.49140137 153.67651855 244.04457031 154.20777344 244.61450195 154.75512695 C251.94225736 161.83070839 258.62714335 169.13544875 264.93823242 177.14526367 C265.85618643 178.25290806 266.77691026 179.35826106 267.69995117 180.46166992 C302.4150532 222.2910405 324.16588991 275.43449511 330.93823242 329.14526367 C331.05537598 330.05711426 331.17251953 330.96896484 331.29321289 331.90844727 C340.94434736 410.79535773 318.68359338 490.74444449 270.82885742 553.93041992 C268.90672545 556.37279836 266.93345498 558.76229031 264.93823242 561.14526367 C264.1519043 562.11592773 263.36557617 563.0865918 262.55541992 564.08666992 C256.08730894 571.9539661 249.05476701 579.24202863 241.87573242 586.45776367 C240.9661377 587.37654297 240.05654297 588.29532227 239.11938477 589.24194336 C233.03299695 595.30097909 226.67855475 600.82754781 219.93823242 606.14526367 C219.2331958 606.70963135 218.52815918 607.27399902 217.80175781 607.85546875 C163.48509837 651.10649204 97.30650016 674.42978687 27.93823242 674.33276367 C26.63965805 674.3313588 26.63965805 674.3313588 25.31484985 674.32992554 C-57.96016344 674.13473094 -134.37161878 637.64831781 -192.87426758 579.45776367 C-197.12170903 575.15586784 -201.20664677 570.80124461 -205.06176758 566.14526367 C-205.47475098 565.6513916 -205.88773437 565.15751953 -206.31323242 564.64868164 C-257.77973429 502.84171235 -282.82802123 422.70171113 -276.5480957 342.64013672 C-271.23119197 286.51055073 -251.20520607 230.58942312 -216.06176758 186.14526367 C-215.43141602 185.33444336 -214.80106445 184.52362305 -214.15161133 183.68823242 C-212.15238385 181.14711988 -210.11733183 178.64104611 -208.06176758 176.14526367 C-207.42247314 175.36844238 -207.42247314 175.36844238 -206.77026367 174.57592773 C-196.8003873 162.52767502 -186.05572983 151.20398999 -174.06176758 141.14526367 C-173.15813477 140.35249023 -172.25450195 139.5597168 -171.32348633 138.74291992 C-129.80962048 102.51118918 -67.62890057 69.14526367 -11.06176758 69.14526367 C-11.06176758 63.86526367 -11.06176758 58.58526367 -11.06176758 53.14526367 C-20.63176758 53.14526367 -30.20176758 53.14526367 -40.06176758 53.14526367 C-40.80522547 22.66349016 -40.80522547 22.66349016 -30.06176758 11.14526367 C-21.56277336 2.36024561 -12.01491567 0.0382343 0 0 Z M-146.06176758 172.14526367 C-146.73852539 172.71116211 -147.4152832 173.27706055 -148.11254883 173.86010742 C-159.13206381 183.13348941 -169.32387558 193.7129346 -178.06176758 205.14526367 C-178.52679688 205.7445166 -178.99182617 206.34376953 -179.47094727 206.96118164 C-186.25763226 215.71587451 -192.50717914 224.54892185 -198.06176758 234.14526367 C-198.41303711 234.74242187 -198.76430664 235.33958008 -199.1262207 235.95483398 C-218.09184294 268.24991029 -229.80383902 302.90596737 -234.06176758 340.14526367 C-234.15603027 340.88558838 -234.25029297 341.62591309 -234.34741211 342.38867188 C-240.96018542 398.95213448 -226.82537698 459.37104853 -196.06176758 507.14526367 C-195.63428223 507.80929199 -195.20679688 508.47332031 -194.76635742 509.1574707 C-184.93750249 524.24489048 -173.54044476 538.1741691 -161.06176758 551.14526367 C-160.51375488 551.71519043 -159.96574219 552.28511719 -159.40112305 552.87231445 C-152.0240382 560.49646884 -144.53456555 567.72876102 -136.06176758 574.14526367 C-135.43351074 574.62286133 -134.80525391 575.10045898 -134.15795898 575.5925293 C-94.79420573 605.3212797 -49.1646681 624.52739421 -0.06176758 630.14526367 C0.73680664 630.24097656 1.53538086 630.33668945 2.3581543 630.43530273 C11.28135405 631.38624725 20.22419316 631.38879453 29.18823242 631.39526367 C30.03138 631.39593842 30.87452759 631.39661316 31.7432251 631.39730835 C45.36360086 631.38004531 58.51922683 630.61295624 71.93823242 628.14526367 C72.86039551 627.98960937 73.78255859 627.83395508 74.73266602 627.67358398 C121.76926426 619.66497371 166.38256428 597.89316207 201.93823242 566.14526367 C202.79288086 565.40018555 203.6475293 564.65510742 204.52807617 563.88745117 C214.91953722 554.72720589 224.37966567 545.04601995 232.93823242 534.14526367 C233.80782241 533.07633025 234.6789821 532.00867234 235.55151367 530.94213867 C265.65993736 493.85174017 284.11324279 448.44064189 289.93823242 401.14526367 C290.06656715 400.16412346 290.06656715 400.16412346 290.19749451 399.16316223 C290.90100975 393.44533925 291.0989319 387.81298172 291.10620117 382.05541992 C291.10952957 381.11202255 291.11285797 380.16862518 291.11628723 379.19664001 C291.12132284 377.20743289 291.12369661 375.2182174 291.12353516 373.22900391 C291.12570377 370.24716524 291.14384647 367.26570811 291.1628418 364.28393555 C291.3484336 303.55880373 268.2978032 242.23063387 227.02026367 197.41088867 C225.11382802 195.33634331 223.27057632 193.22260436 221.43823242 191.08276367 C215.10756401 183.8518626 208.30207452 177.43724311 200.78979492 171.44604492 C198.92115488 169.93833399 197.08081075 168.3947054 195.27416992 166.81323242 C115.93540415 97.64323804 -5.02428203 91.51777866 -146.06176758 172.14526367 Z " fill="#0B0E09" transform="translate(484.061767578125,169.854736328125)"/>
<path d="M0 0 C0.66 0 1.32 0 2 0 C1.61322843 7.34865985 -3.04682371 13.07023557 -7 19 C-7.31523638 21.08278287 -7.31523638 21.08278287 -7.29052734 23.39208984 C-7.30328705 24.27665863 -7.31604675 25.16122742 -7.32919312 26.07260132 C-7.33141876 27.02575226 -7.33364441 27.9789032 -7.3359375 28.9609375 C-7.3425943 29.94365631 -7.3492511 30.92637512 -7.35610962 31.93887329 C-7.36623751 34.0184746 -7.3709266 36.09810843 -7.37060547 38.17773438 C-7.37497391 41.35601543 -7.41127942 44.53290264 -7.44921875 47.7109375 C-7.45508784 49.73176609 -7.45905661 51.75260127 -7.4609375 53.7734375 C-7.47530853 54.72253998 -7.48967957 55.67164246 -7.50448608 56.64950562 C-7.47481627 60.94512098 -7.42572497 63.32492805 -5.09130859 67.02661133 C-2.2278413 69.73417632 -2.2278413 69.73417632 0.75 72.3125 C1.36359375 72.82425781 1.9771875 73.33601562 2.609375 73.86328125 C3.06828125 74.23839844 3.5271875 74.61351562 4 75 C3.34 75.66 2.68 76.32 2 77 C2.66 78.65 3.32 80.3 4 82 C3.22043945 82.53012695 2.44087891 83.06025391 1.63769531 83.60644531 C-3.52119779 87.7740669 -7.04142403 91.21930579 -8.05273438 97.97851562 C-8.46850808 102.87509233 -8.45526815 107.74950738 -8.32421875 112.65917969 C-8.25040332 115.73320368 -8.28281301 118.79286765 -8.328125 121.8671875 C-8.30972135 133.53179944 -6.86123166 141.81697105 0.07519531 151.34082031 C2 154 2 154 2 156 C1.01 156 0.02 156 -1 156 C-2.68823573 153.56538637 -4.17176127 151.19395104 -5.625 148.625 C-6.03234375 147.92632813 -6.4396875 147.22765625 -6.859375 146.5078125 C-8.29680424 144.03276877 -9.71968318 141.56063364 -11 139 C-17.20631367 138.55190454 -23.40309929 138.22724182 -29.62182617 138.01123047 C-31.73091564 137.92117982 -33.83889525 137.7986625 -35.9440918 137.64208984 C-46.14669164 136.80130377 -46.14669164 136.80130377 -56 139 C-60.8994918 143.39644064 -63.61494598 149.33399092 -66.0176239 155.36550903 C-66.34180801 155.90489105 -66.66599213 156.44427307 -67 157 C-67.99 157 -68.98 157 -70 157 C-69.62439384 152.79449095 -67.9705915 150.45277734 -65.38972473 147.19093323 C-58.04501869 137.70636393 -57.73085348 129.69892722 -58.3125 118.0625 C-58.35423996 116.41612651 -58.39136949 114.7696295 -58.42382812 113.12304688 C-57.87433172 99.94762468 -57.87433172 99.94762468 -62.546875 88.6640625 C-63.0625 88.15746094 -63.578125 87.65085937 -64.109375 87.12890625 C-64.65078125 86.63261719 -65.1921875 86.13632812 -65.75 85.625 C-66.2759375 85.10550781 -66.801875 84.58601562 -67.34375 84.05078125 C-70.41651656 81.10731427 -73.08526974 79.51418812 -77 78 C-79.94878941 76.42264929 -81.21266474 75.71715943 -83 73 C-83.86446175 68.25798447 -83.69807994 63.53059164 -83.5859375 58.73046875 C-83.57473835 57.32515782 -83.56620155 55.91982337 -83.56021118 54.51448059 C-83.53736801 50.82641228 -83.47848821 47.13977551 -83.4119873 43.45227051 C-83.35046463 39.6851742 -83.32317515 35.91784516 -83.29296875 32.15039062 C-83.22873672 24.76627641 -83.12641673 17.38333924 -83 10 C-82.67 10 -82.34 10 -82 10 C-81.25914464 19.24492008 -80.92723127 28.42965792 -80.89453125 37.703125 C-80.8799398 39.77474231 -80.86496139 41.84635693 -80.84960938 43.91796875 C-80.82659196 47.11120154 -80.81270432 50.30327418 -80.82495117 53.49658203 C-80.83372142 56.62874502 -80.80504466 59.75869244 -80.76953125 62.890625 C-80.78176224 63.84785461 -80.79399323 64.80508423 -80.80659485 65.7913208 C-80.86527417 70.5527121 -80.86527417 70.5527121 -78.61312866 74.51257324 C-76.80509248 75.79444257 -76.80509248 75.79444257 -74 77 C-70.63163511 75.54238919 -68.43494248 73.6759774 -65.875 71.0625 C-64.85019531 70.02802734 -64.85019531 70.02802734 -63.8046875 68.97265625 C-60.85639983 65.74996085 -59.74900666 63.80472008 -59.77294922 59.50024414 C-59.77310028 58.59242691 -59.77325134 57.68460968 -59.77340698 56.74928284 C-59.78372955 55.77112106 -59.79405212 54.79295929 -59.8046875 53.78515625 C-59.8075174 52.77786972 -59.81034729 51.77058319 -59.81326294 50.73277283 C-59.82446496 47.50922824 -59.84954847 44.28596055 -59.875 41.0625 C-59.88503165 38.89388426 -59.89415718 36.72526412 -59.90234375 34.55664062 C-59.92201538 29.7734034 -59.95044076 24.99030895 -59.98654175 20.20716858 C-59.99915765 18.13814599 -60 16.06906106 -60 14 C-59.5555957 14.64743164 -59.11119141 15.29486328 -58.65332031 15.96191406 C-54.56536608 19.10198049 -50.57002723 18.60311287 -45.546875 18.609375 C-44.53151672 18.62591125 -43.51615845 18.64244751 -42.47003174 18.65948486 C-39.22996005 18.7080339 -35.99035795 18.7293516 -32.75 18.75 C-30.55205962 18.77815383 -28.35414118 18.80808042 -26.15625 18.83984375 C-20.77091878 18.91379443 -15.38572 18.9653965 -10 19 C-9.70867187 18.0807373 -9.41734375 17.16147461 -9.1171875 16.21435547 C-7.84242176 12.54661819 -6.04456052 9.39925996 -4 6.125 C-3.64421875 5.53203125 -3.2884375 4.9390625 -2.921875 4.328125 C-2.00730003 2.84705957 -1.00976463 1.41787784 0 0 Z " fill="#FED935" transform="translate(596,454)"/>
<path d="M0 0 C15.51 0 31.02 0 47 0 C47 20.5 47 20.5 46.9375 26.92382812 C46.62289545 37.98432829 46.62289545 37.98432829 51.875 47.21875 C53.92324631 48.81927016 53.92324631 48.81927016 56 50 C57.485 50.99 57.485 50.99 59 52 C59.66 52.33 60.32 52.66 61 53 C59.58273765 57.5109436 57.33740276 59.95392342 53.9375 63.1875 C49.63510725 66.84832429 49.63510725 66.84832429 47.85523987 71.89746094 C47.84097206 73.0542334 47.84097206 73.0542334 47.82641602 74.234375 C47.81292618 75.10868164 47.79943634 75.98298828 47.78553772 76.88378906 C47.77509933 77.82963867 47.76466095 78.77548828 47.75390625 79.75 C47.72097872 81.73958791 47.68776689 83.72917114 47.65429688 85.71875 C47.60678506 88.8658537 47.56233909 92.01293691 47.52319336 95.16015625 C47.48360992 98.19030419 47.43204286 101.22006378 47.37890625 104.25 C47.3704921 105.19584961 47.36207794 106.14169922 47.35340881 107.11621094 C47.33676682 107.99051758 47.32012482 108.86482422 47.30297852 109.765625 C47.29267105 110.53680664 47.28236359 111.30798828 47.27174377 112.10253906 C47 114 47 114 45 116 C43.19433594 116.13957214 43.19433594 116.13957214 40.984375 115.98901367 C40.15591064 115.94044724 39.32744629 115.8918808 38.47387695 115.84184265 C37.57499756 115.78446426 36.67611816 115.72708588 35.75 115.66796875 C33.84261229 115.58902216 31.93504636 115.51429022 30.02734375 115.44335938 C27.01873484 115.32658912 24.01971315 115.18888228 21.01611328 114.97827148 C10.01762813 113.81648738 10.01762813 113.81648738 0.08496094 117.48199463 C-3.53781631 121.51928064 -5.8347468 126.06139034 -8 131 C-8.495 131.99 -8.495 131.99 -9 133 C-9.99 133 -10.98 133 -12 133 C-12 133.66 -12 134.32 -12 135 C-12.66 135 -13.32 135 -14 135 C-12.75024634 131.14841738 -10.86005269 128.54434966 -8.30815125 125.43634033 C-0.6968611 115.72124406 -0.67036121 106.34801938 -1.08081055 94.37988281 C-1.18876093 91.21300889 -1.22439749 88.05134222 -1.24804688 84.8828125 C-1.27975955 82.86451484 -1.31541854 80.84627443 -1.35546875 78.828125 C-1.37135544 77.88447083 -1.38724213 76.94081665 -1.40361023 75.96856689 C-1.43566055 75.09625427 -1.46771088 74.22394165 -1.50073242 73.32519531 C-1.52423264 72.55991516 -1.54773285 71.79463501 -1.57194519 71.00616455 C-2.10710759 68.49801883 -3.10930952 67.67644296 -5 66 C-5.474375 65.195625 -5.94875 64.39125 -6.4375 63.5625 C-7.88733916 60.90394826 -7.88733916 60.90394826 -10.25 59 C-12 57 -12 57 -11.92138672 54.58959961 C-10.70220356 51.16302945 -9.04306433 50.50276202 -6.0078125 48.56640625 C-2.30289202 45.38350075 -0.71527738 43.01429208 -0.08496094 38.24560547 C0.32553393 32.46706359 0.22897713 26.72894009 0.125 20.9375 C0.08375 14.028125 0.0425 7.11875 0 0 Z " fill="#FED934" transform="translate(652,477)"/>
<path d="M0 0 C0.64630371 0.34522705 1.29260742 0.6904541 1.95849609 1.04614258 C3.53824219 1.63165894 3.53824219 1.63165894 5.14990234 2.22900391 C9.83340277 6.92675351 8.90373049 12.78786885 8.89599609 19.12036133 C8.91020934 20.52799181 8.92560881 21.93561076 8.94213867 23.34321594 C8.96902629 26.29489288 8.97217257 29.24550055 8.96044922 32.19726562 C8.94869602 35.96041663 9.00962964 39.71837015 9.09068298 43.48051739 C9.14270044 46.39007129 9.14816906 49.29839835 9.14089966 52.20835304 C9.14426275 53.59379888 9.16336386 54.97930738 9.19918823 56.36429405 C9.33573617 62.29950981 9.39090533 67.09541355 5.79296875 71.99526978 C3.26445165 74.40569073 1.04215686 76.40126007 -2.04150391 78.04614258 C-6.94743965 77.60414596 -9.97103524 74.50882927 -13.08154297 70.91186523 C-17.75012613 63.27621504 -16.51119778 52.53571785 -16.43457031 43.93457031 C-16.4165798 40.24918901 -16.51570844 36.57933903 -16.62353516 32.89575195 C-16.83162275 13.64862983 -16.83162275 13.64862983 -10.48745728 6.49494934 C-3.81126739 0.08614321 -3.81126739 0.08614321 0 0 Z " fill="#121209" transform="translate(333.04150390625,533.953857421875)"/>
<path d="M0 0 C6.17495151 2.9956165 11.68020744 6.86644567 15 13 C16.80247979 19.34138723 16.62540665 25.95536037 16.48901367 32.49438477 C16.43791457 35.53780858 16.5086506 38.5611515 16.59179688 41.60351562 C16.67823861 56.41220718 12.49505161 65.72995649 3 77 C-5.2254784 73.00213901 -5.2254784 73.00213901 -8 69 C-9.06431078 64.30611154 -9.0113485 59.63298179 -8.96484375 54.84375 C-8.97210801 53.45421243 -8.98129989 52.06468372 -8.99232483 50.6751709 C-9.00711845 47.76972324 -8.99623744 44.86578194 -8.9675293 41.96044922 C-8.93323254 38.24693493 -8.96659892 34.53762211 -9.01973629 30.82445526 C-9.05262898 27.95704033 -9.04763607 25.09062017 -9.0315876 22.22309875 C-9.02877811 20.85481371 -9.03801027 19.48644637 -9.05979729 18.11833191 C-9.20028179 7.43285309 -9.20028179 7.43285309 -6.150177 3.79174805 C-4.15794174 2.28342489 -2.25327347 1.0712583 0 0 Z " fill="#0D0E08" transform="translate(636,533)"/>
<path d="M0 0 C2.33714313 -0.06151651 4.67374814 -0.14995615 7.00878906 -0.26660156 C27.4596227 -1.26856589 27.4596227 -1.26856589 33.32836914 3.81665039 C35.98643758 6.65758301 38.11549938 9.71969841 40.0977478 13.05978394 C41.2692805 14.92047223 42.57430488 16.51866184 44.015625 18.17675781 C46.22143555 20.84448242 46.22143555 20.84448242 46.22143555 22.84448242 C35.82529141 22.89075559 25.42917165 22.92632601 15.03294563 22.94810677 C10.20592749 22.95855868 5.37897964 22.97274347 0.55200195 22.99536133 C-4.10342223 23.01703964 -8.75877867 23.02904043 -13.41424942 23.03423691 C-15.19332064 23.0379417 -16.97238801 23.04517591 -18.75143051 23.05594254 C-21.23695739 23.07039096 -23.72220178 23.07246318 -26.20776367 23.0715332 C-26.9486322 23.07872375 -27.68950073 23.08591431 -28.45281982 23.09332275 C-33.55046013 23.07258674 -33.55046013 23.07258674 -35.77856445 20.84448242 C-35.43967111 17.51844961 -34.04945323 15.66296809 -31.87231445 13.20776367 C-31.00413086 12.21873047 -31.00413086 12.21873047 -30.1184082 11.2097168 C-29.51125977 10.53231445 -28.90411133 9.85491211 -28.27856445 9.15698242 C-27.67141602 8.46797852 -27.06426758 7.77897461 -26.4387207 7.0690918 C-18.87869562 -1.49276289 -11.23714062 0.23415604 0 0 Z " fill="#0D0E08" transform="translate(404.778564453125,591.155517578125)"/>
<path d="M0 0 C3.89619357 1.61030328 6.70280039 4.23122501 9.6875 7.125 C10.18572266 7.57359375 10.68394531 8.0221875 11.19726562 8.484375 C18.68946293 15.76309043 16.62062359 31.56957619 16.79412842 41.45059204 C16.90960104 53.68460491 15.86966728 62.77633629 7.6015625 72.38671875 C6.06920909 73.92597465 4.53580853 75.46419147 3 77 C-1.76248672 73.26345586 -6.22012117 69.7043464 -7.94192505 63.73373413 C-8.26824161 60.00221021 -8.30881479 56.38156488 -8.22265625 52.63671875 C-8.22177167 51.272932 -8.22431251 49.90913919 -8.23008728 48.54536438 C-8.2312844 45.70596802 -8.19829376 42.86976624 -8.13891602 40.03100586 C-8.06478293 36.40052954 -8.0668955 32.77490835 -8.09304142 29.14392376 C-8.10669929 26.33561461 -8.08560572 23.52841247 -8.05352592 20.72028542 C-8.03547747 18.73455958 -8.04230149 16.74865769 -8.04957581 14.76286316 C-7.81899437 5.98478693 -7.81899437 5.98478693 -5.37277222 3.04336548 C-3.43530273 1.64379883 -3.43530273 1.64379883 0 0 Z " fill="#0C0E08" transform="translate(522,533)"/>
<path d="M0 0 C7.24163064 3.23882764 11.89673222 10.92006374 15 18 C16.66122251 24.33942104 16.67430441 30.77655521 16.54394531 37.29174805 C16.49978242 40.20183748 16.58463992 43.0895419 16.6796875 45.99804688 C16.75631749 54.80232524 16.47215909 61.47943444 10.24157715 68.13459778 C7.60964781 70.61359601 4.90133823 72.84100032 2 75 C-2.54539003 73.57144885 -5.26444799 71.94514577 -8 68 C-8.79040035 63.47883998 -8.77205932 58.99503675 -8.76953125 54.4140625 C-8.78053066 53.07033429 -8.79256617 51.72661419 -8.80558777 50.38290405 C-8.82646031 47.57012892 -8.82779422 44.75813524 -8.81665039 41.9453125 C-8.80496942 38.35417626 -8.85243961 34.7665845 -8.91611195 31.17609596 C-8.95685963 28.40138419 -8.96046187 25.62751632 -8.95371056 22.85255051 C-8.95696758 20.88993121 -8.99544599 18.92747144 -9.03462219 16.96524048 C-8.92165362 8.20510452 -8.92165362 8.20510452 -6.15463257 4.58709717 C-4.18117876 2.84679827 -2.2451461 1.36601361 0 0 Z " fill="#0D0E08" transform="translate(636,456)"/>
<path d="M0 0 C3.46048057 1.24961798 6.34191657 2.42336372 9 5 C9.53485107 7.74334717 9.53485107 7.74334717 9.58105469 11.10449219 C9.6193338 12.99225372 9.6193338 12.99225372 9.65838623 14.91815186 C9.66450283 16.29438666 9.66895766 17.6706297 9.671875 19.046875 C9.68473302 20.46071919 9.6981899 21.87455806 9.71221924 23.28839111 C9.73617623 26.25423503 9.74358037 29.21961302 9.74121094 32.18554688 C9.74080536 35.97388255 9.79530221 39.75920313 9.86429977 43.54682541 C9.90894546 46.46902979 9.91688292 49.39051602 9.91477203 52.31302643 C9.91947213 53.70847171 9.93705401 55.10393856 9.9681015 56.49904633 C10.18726908 67.36884992 10.18726908 67.36884992 7.2623291 71.3873291 C5.25557974 73.17420793 3.29658086 74.61323913 1 76 C-0.485 76.99 -0.485 76.99 -2 78 C-11.52061439 65.42841217 -14.79951147 55.34864819 -14.43408203 39.59301758 C-14.37448068 36.53586232 -14.43404269 33.49610617 -14.50390625 30.43945312 C-14.55965628 14.59274812 -14.55965628 14.59274812 -9.06362915 8.67723083 C-6.82822493 6.62463871 -4.43022605 4.81418768 -2 3 C-1.34 2.01 -0.68 1.02 0 0 Z " fill="#0C0E08" transform="translate(601,533)"/>
<path d="M0 0 C4.2780455 1.87351025 6.19345439 4.74541866 8.6875 8.5625 C11.11509383 12.46869317 11.11509383 12.46869317 14 16 C14.13949639 17.38812446 14.21206126 18.78307729 14.25634766 20.17749023 C14.28532135 21.06609238 14.31429504 21.95469452 14.34414673 22.870224 C14.44177055 26.97308762 14.51582448 31.07577373 14.56982422 35.17944336 C14.6063417 37.33575214 14.66076748 39.49183872 14.73388672 41.6472168 C15.40924299 61.85966527 15.40924299 61.85966527 9.7109375 68.22265625 C8.18054024 69.52999519 6.61130748 70.79379144 5 72 C3.64960634 73.31605187 2.31072404 74.64443442 1 76 C-2.46048057 74.75038202 -5.34191657 73.57663628 -8 71 C-8.53485107 68.25665283 -8.53485107 68.25665283 -8.58105469 64.89550781 C-8.6065741 63.63700012 -8.63209351 62.37849243 -8.65838623 61.08184814 C-8.66450283 59.70561334 -8.66895766 58.3293703 -8.671875 56.953125 C-8.68473302 55.53928081 -8.6981899 54.12544194 -8.71221924 52.71160889 C-8.73617623 49.74576497 -8.74358037 46.78038698 -8.74121094 43.81445312 C-8.74080536 40.02611745 -8.79530221 36.24079687 -8.86429977 32.45317459 C-8.90894546 29.53097021 -8.91688292 26.60948398 -8.91477203 23.68697357 C-8.91947213 22.29152829 -8.93705401 20.89606144 -8.9681015 19.50095367 C-9.18821247 8.58436198 -9.18821247 8.58436198 -6.15686035 4.5423584 C-4.18309148 2.80120724 -2.26070296 1.34086895 0 0 Z " fill="#0A0D08" transform="translate(523,456)"/>
<path d="M0 0 C4.57660641 2.10358711 7.59889412 4.50673706 10 9 C10.88969816 13.60621803 10.86498836 18.1358884 10.83203125 22.81640625 C10.83862371 24.1596717 10.84684558 25.50293004 10.85661316 26.84617615 C10.86991946 29.65135903 10.86120839 32.45539509 10.8371582 35.26049805 C10.80853558 38.84474368 10.83868298 42.42570742 10.88579273 46.00965977 C10.91506201 48.78006964 10.91123329 51.54970144 10.89777184 54.32020378 C10.89459037 56.27998726 10.92050858 58.23974874 10.94697571 60.19935608 C10.81004623 68.90922002 10.81004623 68.90922002 8.38168335 72.1791687 C6.65343051 73.67414239 4.99529912 74.89387783 3 76 C-0.45709429 74.34640776 -3.20874665 72.36186203 -6.1875 69.9375 C-7.06792969 69.22464844 -7.94835937 68.51179687 -8.85546875 67.77734375 C-11.97988953 65.18788755 -11.97988953 65.18788755 -12.18754578 63.24780273 C-12.21548721 62.48411377 -12.24342865 61.7204248 -12.2722168 60.93359375 C-12.30441818 60.06758545 -12.33661957 59.20157715 -12.36979675 58.30932617 C-12.48137165 54.27488083 -12.56320871 50.24059139 -12.62475586 46.20507812 C-12.66603416 44.09651163 -12.72701759 41.9882231 -12.80932617 39.88085938 C-13.39883212 24.52696428 -11.46295237 14.31819574 -2 2 C-1.34 1.34 -0.68 0.68 0 0 Z " fill="#0A0C08" transform="translate(444,455)"/>
<path d="M0 0 C4.33317917 2.29403603 8.44558597 4.73490282 11 9 C11.89705568 13.72580148 11.82138503 18.43437294 11.76171875 23.2265625 C11.76322257 24.62088347 11.76665603 26.01520356 11.77192688 27.40951538 C11.77624759 30.32324554 11.7595008 33.23586472 11.72729492 36.14941406 C11.68743747 39.88021397 11.69684783 43.6089407 11.72152996 47.33980751 C11.73572202 50.21559605 11.72562118 53.09090139 11.70801735 55.96665573 C11.70217762 57.34213481 11.70345512 58.71766353 11.71204185 60.0931282 C11.72004696 62.0147755 11.69222654 63.93647087 11.6628418 65.85791016 C11.65584763 66.95011871 11.64885345 68.04232727 11.64164734 69.16763306 C11 72 11 72 8.61001587 74.38111877 C6 76 6 76 3.5769043 76.04418945 C-2.59942242 73.54147516 -7.758753 68.81638201 -11 63 C-12.82196329 56.89596785 -12.60487922 50.53961965 -12.3996582 44.22973633 C-12.31304662 41.3307956 -12.33777839 38.44849742 -12.37695312 35.54882812 C-12.32737224 22.39977971 -9.67557061 9.67557061 0 0 Z " fill="#0D0F09" transform="translate(711,455)"/>
<path d="M0 0 C4.31623617 2.28506621 8.50628399 4.70886002 11 9 C11.90733684 13.65355117 11.86456585 18.24317278 11.83203125 22.97265625 C11.83862057 24.34216666 11.846841 25.7116701 11.85661316 27.0811615 C11.86993317 29.94358676 11.86118291 32.80488908 11.8371582 35.66723633 C11.80853608 39.32893327 11.83867566 42.98741778 11.88579273 46.64882755 C11.91502927 49.47409657 11.91124283 52.29860112 11.89777184 55.12396049 C11.89458314 57.1275505 11.92053934 59.13111861 11.94697571 61.13453674 C11.81001157 70.01619086 11.81001157 70.01619086 9.38168335 72.96554565 C7.4440918 74.36499023 7.4440918 74.36499023 4 76 C1.15912872 74.68547403 -1.129743 73.22915319 -3.5 71.1875 C-4.35078125 70.46626953 -4.35078125 70.46626953 -5.21875 69.73046875 C-5.8065625 69.15941406 -6.394375 68.58835937 -7 68 C-7.68070557 67.33935547 -8.36141113 66.67871094 -9.06274414 65.99804688 C-11.78254877 61.78894783 -11.70169383 58.2234122 -11.77734375 53.30078125 C-11.79777237 52.35172409 -11.81820099 51.40266693 -11.83924866 50.42485046 C-11.87261691 48.41188656 -11.89459366 46.39870616 -11.90600586 44.38549805 C-11.93696924 41.36428857 -12.04790748 38.35302668 -12.16210938 35.33398438 C-12.43609921 20.71502403 -8.82137283 11.58911146 0 0 Z " fill="#0D0E09" transform="translate(599,455)"/>
<path d="M0 0 C2.97924279 1.38321987 5.61172371 2.72794397 8 5 C8.54830933 7.72988892 8.54830933 7.72988892 8.61279297 11.07275391 C8.64476776 12.32480621 8.67674255 13.57685852 8.70968628 14.86685181 C8.72244522 16.23673879 8.73322897 17.60664539 8.7421875 18.9765625 C8.76013039 20.38561375 8.77837427 21.7946612 8.79690552 23.20370483 C8.829898 26.16112505 8.84528569 29.1180925 8.85107422 32.07568359 C8.86180399 35.84649104 8.93696493 39.61297237 9.02856255 43.38256264 C9.08840741 46.29628507 9.10252764 49.20898873 9.10452652 52.12327194 C9.11288357 53.51157687 9.1375649 54.89989148 9.17956161 56.28758621 C9.48119065 67.12336432 9.48119065 67.12336432 5.69830322 71.91619873 C3.22874791 74.15291788 0.75991245 76.13793244 -2 78 C-4.87241892 74.42525887 -7.66753856 70.85489245 -10.25 67.0625 C-10.95640625 66.06347656 -11.6628125 65.06445312 -12.390625 64.03515625 C-14.70978024 59.50640735 -14.25278324 54.87918417 -14.10595703 49.90454102 C-14.01525843 46.56227654 -14.05649515 43.27780315 -14.17185974 39.94006348 C-15.02464958 13.37643397 -15.02464958 13.37643397 -8.2800293 6.06079102 C-5.64243861 3.73704111 -3.01772106 1.80895379 0 0 Z " fill="#0A0C08" transform="translate(714,533)"/>
<path d="M0 0 C4.97110699 2.24083527 8.28118195 5.25045013 11 10 C12.01066331 14.72925381 11.98228246 19.34558641 11.9296875 24.16796875 C11.93441166 25.5346206 11.94121259 26.90126668 11.94998169 28.26789856 C11.96025152 31.11854594 11.94546579 33.9676487 11.91259766 36.81811523 C11.87259318 40.46413521 11.89577164 44.10656179 11.9376049 47.7524519 C11.96294174 50.56918784 11.95483416 53.38507559 11.93671036 56.20183754 C11.929805 58.19652793 11.95097315 60.19125197 11.97262573 62.18583679 C11.81225712 71.01705294 11.81225712 71.01705294 9.37945557 73.96109009 C7.44189453 75.3605957 7.44189453 75.3605957 4 77 C-1.86847736 74.25596325 -7.18256571 71.07079687 -10 65 C-11.63589429 57.48432712 -11.31118866 49.68889251 -11.13891602 42.04101562 C-11.06252665 38.37627838 -11.07723675 34.71997624 -11.10351562 31.0546875 C-11.0861274 28.71089123 -11.06351842 26.36712666 -11.03515625 24.0234375 C-11.0399147 22.93678802 -11.04467316 21.85013855 -11.04957581 20.7305603 C-10.80617706 12.84768377 -8.58357263 9.36526589 -3 4 C-1.97646944 2.68464341 -0.96932896 1.35579466 0 0 Z " fill="#0B0D08" transform="translate(329,454)"/>
<path d="M0 0 C1.25908676 0.00222061 2.51817352 0.00444122 3.81541443 0.00672913 C4.50806396 0.0065831 5.2007135 0.00643707 5.91435242 0.00628662 C8.21400537 0.00698577 10.51357828 0.01477823 12.81321716 0.02259827 C14.40362504 0.02446244 15.99403349 0.02588635 17.58444214 0.02688599 C21.77827021 0.03071123 25.97206386 0.04054156 30.1658783 0.05158997 C34.44220006 0.06180395 38.71852736 0.06638358 42.99485779 0.07142639 C51.39135799 0.08216383 59.78783017 0.09924032 68.18431091 0.12025452 C66.76759018 2.76279036 65.33642675 5.3942201 63.87405396 8.0118866 C62.80148629 9.98492914 61.78595466 11.99092877 60.85162354 14.0330658 C57.62457557 20.58355238 57.62457557 20.58355238 53.75349426 22.02607727 C50.70858689 22.41514044 47.8271963 22.45509561 44.75852966 22.37806702 C43.65636612 22.38289093 42.55420258 22.38771484 41.41864014 22.39268494 C39.09111624 22.39072967 36.76349843 22.36397889 34.43650818 22.31410217 C30.89150727 22.24563493 27.35653144 22.27272074 23.81126404 22.31166077 C21.54364381 22.29785696 19.27604921 22.27850587 17.00852966 22.25306702 C15.43309639 22.26794662 15.43309639 22.26794662 13.82583618 22.28312683 C5.54574013 22.02113934 1.76519463 19.00114528 -3.81568909 13.12025452 C-4.98739029 12.10178874 -6.17293153 11.09877916 -7.37818909 10.12025452 C-8.18256409 9.46025452 -8.98693909 8.80025452 -9.81568909 8.12025452 C-8.83702571 6.97399129 -7.85774321 5.82825664 -6.87818909 4.68275452 C-6.33291565 4.04466858 -5.78764221 3.40658264 -5.22584534 2.74916077 C-2.95513752 0.12621018 -2.95513752 0.12621018 0 0 Z " fill="#0B0D08" transform="translate(373.81568908691406,451.87974548339844)"/>
<path d="M0 0 C0.60317551 0.30691772 1.20635101 0.61383545 1.82780457 0.93005371 C3.44007048 1.72419861 5.09001789 2.44276846 6.75512695 3.11914062 C10.43211464 5.05430024 12.48411055 6.65575177 15 10 C16.82200429 16.55093281 16.45340872 23.50710399 16.26928711 30.24462891 C16.18765867 33.49368444 16.20751596 36.73076739 16.24023438 39.98046875 C16.22218034 42.05995698 16.19828651 44.13940441 16.16796875 46.21875 C16.17475143 47.18043091 16.18153412 48.14211182 16.18852234 49.13293457 C15.97669507 54.68378095 15.05163246 57.52168447 11.0715332 61.50195312 C9.72147774 62.67620782 8.36507166 63.84323589 7 65 C5.62631655 66.63356951 4.28062485 68.2925002 3 70 C2.4225 70.763125 1.845 71.52625 1.25 72.3125 C0.8375 72.869375 0.425 73.42625 0 74 C-2.89826922 72.70077587 -5.04664792 71.53037855 -7 69 C-7.40786743 66.28788757 -7.40786743 66.28788757 -7.45166016 62.97143555 C-7.4740274 61.72972092 -7.49639465 60.48800629 -7.5194397 59.20866394 C-7.52734614 57.85135614 -7.53385244 56.49403957 -7.5390625 55.13671875 C-7.55124564 53.74290202 -7.56373174 52.34908791 -7.57650757 50.95527649 C-7.59898595 48.03238048 -7.60853763 45.10974517 -7.61083984 42.18676758 C-7.6161166 38.45021838 -7.6674001 34.71585352 -7.73035622 30.97989178 C-7.77132991 28.09981359 -7.78048283 25.22025775 -7.78095627 22.33991432 C-7.78632633 20.96319157 -7.80313038 19.58646224 -7.83180618 18.21002769 C-8.03769258 7.42614448 -8.03769258 7.42614448 -5.3883667 3.7850647 C-3.6572808 2.28738395 -2.01093893 1.08485884 0 0 Z " fill="#0C0E08" transform="translate(367,534)"/>
<path d="M0 0 C1.07002258 -0.01144043 2.14004517 -0.02288086 3.24249268 -0.03466797 C5.49821375 -0.04814305 7.75410468 -0.04374076 10.00976562 -0.02246094 C13.4315686 -0.00014061 16.8446142 -0.06285519 20.265625 -0.1328125 C31.64614519 -0.20855778 40.19487219 -0.04546082 48.96582031 7.67578125 C50.703125 10 50.703125 10 50.703125 14 C48.92727788 17.31311352 46.69876955 19.73898404 43.703125 22 C39.86151859 23.1424302 36.20242688 23.124113 32.21484375 23.0625 C31.11646683 23.07015381 30.0180899 23.07780762 28.88642883 23.08569336 C26.56918663 23.09112177 24.25182087 23.07646686 21.93481445 23.04296875 C18.4101021 23.00023613 14.89359566 23.04251744 11.36914062 23.09375 C9.10935718 23.08846084 6.84957881 23.07820545 4.58984375 23.0625 C3.54785324 23.07869385 2.50586273 23.0948877 1.43229675 23.11157227 C-7.01621047 22.89803468 -11.22742901 19.61446093 -17.296875 14 C-18.286875 13.34 -19.276875 12.68 -20.296875 12 C-19.54713128 7.42869195 -17.20953201 5.36716269 -13.74060059 2.484375 C-9.35919709 -0.17699003 -5.01459098 -0.03901708 0 0 Z " fill="#0A0C08" transform="translate(391.296875,521)"/>
<path d="M0 0 C14.51494798 0.065503 14.51494798 0.065503 20.21289062 3.38574219 C24.96563781 8.30099319 27.98824706 14.64366794 28.89208984 21.45068359 C28.56208984 22.11068359 28.23208984 22.77068359 27.89208984 23.45068359 C5.78208984 23.45068359 -16.32791016 23.45068359 -39.10791016 23.45068359 C-40.10791016 20.45068359 -40.10791016 20.45068359 -39.22753906 18.47363281 C-38.76782715 17.74160645 -38.30811523 17.00958008 -37.83447266 16.25537109 C-37.33947266 15.45744141 -36.84447266 14.65951172 -36.33447266 13.83740234 C-35.80595703 13.00853516 -35.27744141 12.17966797 -34.73291016 11.32568359 C-34.21212891 10.48908203 -33.69134766 9.65248047 -33.15478516 8.79052734 C-25.95565457 -2.71689124 -12.81160498 0.20484795 0 0 Z " fill="#0F1009" transform="translate(568.10791015625,590.54931640625)"/>
<path d="M0 0 C0.82523666 -0.05794739 1.65047333 -0.11589478 2.50071716 -0.17559814 C6.30569282 -0.3716125 10.10997307 -0.51889341 13.91845703 -0.62695312 C15.91686087 -0.69999255 17.91430404 -0.80888752 19.90869141 -0.95507812 C33.17490651 -1.91219513 33.17490651 -1.91219513 39.00024414 0.51269531 C44.27356086 5.09670097 47.90590083 11.88788303 50.00024414 18.51269531 C50.00024414 19.83269531 50.00024414 21.15269531 50.00024414 22.51269531 C27.89024414 22.51269531 5.78024414 22.51269531 -16.99975586 22.51269531 C-16.16296918 19.16554861 -15.5443937 17.48591777 -13.78491211 14.69238281 C-13.34598633 13.99242187 -12.90706055 13.29246094 -12.45483398 12.57128906 C-11.9952832 11.85070312 -11.53573242 11.13011719 -11.06225586 10.38769531 C-10.60657227 9.659375 -10.15088867 8.93105469 -9.68139648 8.18066406 C-4.72204122 0.3241159 -4.72204122 0.3241159 0 0 Z " fill="#0A0C08" transform="translate(657.999755859375,591.4873046875)"/>
<path d="M0 0 C23.1 0 46.2 0 70 0 C68.69646 3.25885 67.5363417 6.00042816 65.8359375 8.98828125 C65.43632813 9.69404297 65.03671875 10.39980469 64.625 11.12695312 C64.2125 11.84818359 63.8 12.56941406 63.375 13.3125 C62.95476563 14.05306641 62.53453125 14.79363281 62.1015625 15.55664062 C61.07051505 17.37269011 60.03563954 19.18656533 59 21 C52.67119261 21.43467211 46.346265 21.73006654 40.00585938 21.93383789 C37.8553096 22.01882137 35.70572778 22.13447745 33.55859375 22.2824707 C16.22729771 23.44621247 16.22729771 23.44621247 10.8112793 19.34100342 C5.61082555 13.8131877 1.83860259 7.35441036 0 0 Z " fill="#0A0C08" transform="translate(527,452)"/>
<path d="M0 0 C22.44 0 44.88 0 68 0 C65.74890916 6.75327251 65.74890916 6.75327251 64.08984375 9.61328125 C63.73986328 10.22107422 63.38988281 10.82886719 63.02929688 11.45507812 C62.66900391 12.06802734 62.30871094 12.68097656 61.9375 13.3125 C61.57333984 13.94478516 61.20917969 14.57707031 60.83398438 15.22851562 C58.16003667 19.83996333 58.16003667 19.83996333 57 21 C20.09085253 24.88180838 20.09085253 24.88180838 9.64453125 19.16308594 C4.69081921 14.47123546 1.65758997 8.59930052 0 2 C0 1.34 0 0.68 0 0 Z " fill="#0B0D08" transform="translate(640,452)"/>
<path d="M0 0 C5.1665625 -0.0309375 5.1665625 -0.0309375 10.4375 -0.0625 C11.52474365 -0.071604 12.6119873 -0.08070801 13.73217773 -0.09008789 C15.00750366 -0.09383423 15.00750366 -0.09383423 16.30859375 -0.09765625 C17.62041626 -0.10551147 17.62041626 -0.10551147 18.95874023 -0.11352539 C21 0 21 0 22 1 C22.08713831 2.70772358 22.10700007 4.41898649 22.09765625 6.12890625 C22.09443359 7.16337891 22.09121094 8.19785156 22.08789062 9.26367188 C22.07951172 10.35228516 22.07113281 11.44089844 22.0625 12.5625 C22.05798828 13.65498047 22.05347656 14.74746094 22.04882812 15.87304688 C22.0369984 18.58205432 22.01906231 21.2910338 22 24 C14.74 24 7.48 24 0 24 C0 16.08 0 8.16 0 0 Z " fill="#13130A" transform="translate(474,548)"/>
<path d="M0 0 C3.279375 -0.020625 6.55875 -0.04125 9.9375 -0.0625 C10.97253662 -0.071604 12.00757324 -0.08070801 13.07397461 -0.09008789 C14.28839233 -0.09383423 14.28839233 -0.09383423 15.52734375 -0.09765625 C16.77632446 -0.10551147 16.77632446 -0.10551147 18.05053711 -0.11352539 C20 0 20 0 21 1 C21.08726223 2.78071246 21.10699041 4.5648314 21.09765625 6.34765625 C21.09443359 7.42724609 21.09121094 8.50683594 21.08789062 9.61914062 C21.07951172 10.75544922 21.07113281 11.89175781 21.0625 13.0625 C21.05798828 14.20267578 21.05347656 15.34285156 21.04882812 16.51757812 C21.0369976 19.34507418 21.0190615 22.17254345 21 25 C14.07 25 7.14 25 0 25 C0 16.75 0 8.5 0 0 Z " fill="#090B08" transform="translate(475,494)"/>
<path d="M0 0 C0.99 0.33 1.98 0.66 3 1 C1.618047 5.56044489 -0.22503546 9.56637877 -2.5 13.75 C-3.41265625 15.44382812 -3.41265625 15.44382812 -4.34375 17.171875 C-6 20 -6 20 -8 22 C-10.02481079 22.24050903 -10.02481079 22.24050903 -12.54150391 22.22705078 C-13.48232819 22.22689972 -14.42315247 22.22674866 -15.39248657 22.22659302 C-16.41023163 22.21627045 -17.42797668 22.20594788 -18.4765625 22.1953125 C-19.51694672 22.1924826 -20.55733093 22.18965271 -21.62924194 22.18673706 C-24.96127694 22.17551704 -28.29304586 22.15040915 -31.625 22.125 C-33.88020446 22.11497256 -36.13541312 22.1058463 -38.390625 22.09765625 C-43.92717454 22.07557178 -49.46356827 22.04207639 -55 22 C-55 21.34 -55 20.68 -55 20 C-55.66 19.67 -56.32 19.34 -57 19 C-54.19462697 18.06487566 -52.51834636 17.87817093 -49.62036133 17.88647461 C-48.29933159 17.88658791 -48.29933159 17.88658791 -46.95161438 17.88670349 C-46.00465195 17.89186478 -45.05768951 17.89702606 -44.08203125 17.90234375 C-43.10965012 17.9037587 -42.13726898 17.90517365 -41.13542175 17.90663147 C-38.02774996 17.91223183 -34.92015004 17.92478438 -31.8125 17.9375 C-29.70638125 17.94251495 -27.60026137 17.94707787 -25.49414062 17.95117188 C-20.32937707 17.96135075 -15.16476906 17.98092617 -10 18 C-6.7 12.06 -3.4 6.12 0 0 Z " fill="#F7EA06" transform="translate(707,454)"/>
<path d="M0 0 C0 3 0 3 -1.875 5.1875 C-4 7 -4 7 -6 7 C-6 7.66 -6 8.32 -6 9 C-6.99 9.66 -7.98 10.32 -9 11 C-9.28875 11.639375 -9.5775 12.27875 -9.875 12.9375 C-11.37724389 15.69161379 -13.28936304 16.50914967 -16 18 C-16.66 18.66 -17.32 19.32 -18 20 C-20.1809845 20.31884766 -20.1809845 20.31884766 -22.92114258 20.4140625 C-24.45832695 20.47291626 -24.45832695 20.47291626 -26.02656555 20.53295898 C-27.13799423 20.56333252 -28.24942291 20.59370605 -29.39453125 20.625 C-31.10379036 20.67539429 -31.10379036 20.67539429 -32.84757996 20.72680664 C-35.26257889 20.79273193 -37.67774161 20.85286959 -40.09301758 20.90771484 C-43.78811393 20.99939495 -47.48011803 21.13394154 -51.17382812 21.26953125 C-53.51816403 21.32818497 -55.86256617 21.38425921 -58.20703125 21.4375 C-59.31238724 21.48406738 -60.41774323 21.53063477 -61.55659485 21.57861328 C-69.08356318 21.6806366 -69.08356318 21.6806366 -71.84017944 19.63330078 C-73.23706055 17.97265625 -73.23706055 17.97265625 -75 15 C-72 15 -72 15 -69 17 C-66.68833782 17.34342021 -66.68833782 17.34342021 -64.08886719 17.35400391 C-63.09062927 17.37967438 -62.09239136 17.40534485 -61.06390381 17.43179321 C-59.9857843 17.44656708 -58.90766479 17.46134094 -57.796875 17.4765625 C-56.68572327 17.49270599 -55.57457153 17.50884949 -54.42974854 17.52548218 C-52.07611323 17.55315622 -49.72239779 17.57460402 -47.36865234 17.59033203 C-43.77676403 17.62474359 -40.18856732 17.71250037 -36.59765625 17.80078125 C-34.30992289 17.82103749 -32.02215824 17.83806897 -29.734375 17.8515625 C-28.66435242 17.88657867 -27.59432983 17.92159485 -26.49188232 17.95767212 C-20.73544307 17.95441174 -20.73544307 17.95441174 -15.8223877 15.26678467 C-14.05961629 13.25471443 -12.5344243 11.18805894 -11 9 C-8.78430524 6.64042276 -6.41740893 4.73415413 -3.8125 2.8125 C-3.09707031 2.28269531 -2.38164062 1.75289062 -1.64453125 1.20703125 C-0.83048828 0.60955078 -0.83048828 0.60955078 0 0 Z " fill="#D7C80E" transform="translate(453,525)"/>
<path d="M0 0 C0.66 0 1.32 0 2 0 C0.9152755 6.86160978 -1.2781329 13.35722299 -5.98651123 18.55987549 C-13.40086898 23.86290896 -25.9935993 21.39107721 -34.5625 20.9375 C-37.02649055 20.86220555 -39.49070099 20.79377363 -41.95507812 20.73242188 C-47.97486984 20.5676317 -53.98641594 20.31720605 -60 20 C-60 19.34 -60 18.68 -60 18 C-59.3935817 18.02300171 -58.78716339 18.04600342 -58.16236877 18.06970215 C-51.81850479 18.29435957 -45.47969671 18.40517675 -39.13208008 18.45166016 C-36.76790636 18.48367619 -34.40393302 18.54418026 -32.04125977 18.63427734 C-19.36834714 19.68703397 -19.36834714 19.68703397 -8.02947998 15.37255859 C-4.55508525 11.02714679 -2.72636219 6.24080682 -1 1 C-0.67 0.67 -0.34 0.34 0 0 Z " fill="#E9DC04" transform="translate(440,455)"/>
<path d="M0 0 C0.66 0 1.32 0 2 0 C1.66678587 6.33106841 -1.69742959 10.8161146 -5 16 C-5.30478271 16.8657666 -5.60956543 17.7315332 -5.92358398 18.62353516 C-8 21 -8 21 -10.12530518 21.43730164 C-13.02678477 21.58154471 -15.88871793 21.56073307 -18.79296875 21.48828125 C-20.38471672 21.47766914 -20.38471672 21.47766914 -22.00862122 21.46684265 C-25.40229403 21.43882466 -28.7943248 21.37606956 -32.1875 21.3125 C-34.48630432 21.28742684 -36.78513447 21.26461197 -39.08398438 21.24414062 C-44.72321774 21.1889739 -50.36149159 21.10527355 -56 21 C-56 20.34 -56 19.68 -56 19 C-40.82 19 -25.64 19 -10 19 C-9.34 17.02 -8.68 15.04 -8 13 C-6.71490758 10.64935179 -5.41513349 8.39126449 -4 6.125 C-3.64421875 5.53203125 -3.2884375 4.9390625 -2.921875 4.328125 C-2.00730003 2.84705957 -1.00976463 1.41787784 0 0 Z " fill="#E8D903" transform="translate(596,454)"/>
<path d="M0 0 C0.33 0 0.66 0 1 0 C1.74085536 9.24492008 2.07276873 18.42965792 2.10546875 27.703125 C2.1200602 29.77474231 2.13503861 31.84635693 2.15039062 33.91796875 C2.17340804 37.11120154 2.18729568 40.30327418 2.17504883 43.49658203 C2.16627858 46.62874502 2.19495534 49.75869244 2.23046875 52.890625 C2.21823776 53.84785461 2.20600677 54.80508423 2.19340515 55.7913208 C2.13472583 60.5527121 2.13472583 60.5527121 4.38687134 64.51257324 C6.19490752 65.79444257 6.19490752 65.79444257 9 67 C12.36716935 65.54616625 14.52270045 63.69038509 17.0625 61.0625 C17.73410156 60.37285156 18.40570312 59.68320312 19.09765625 58.97265625 C20.03931641 57.99619141 20.03931641 57.99619141 21 57 C21.99776537 55.99777035 22.9968799 54.99687013 24 54 C24 58 24 58 22.28515625 59.8515625 C21.55167969 60.43679688 20.81820312 61.02203125 20.0625 61.625 C17.06740295 63.93623974 17.06740295 63.93623974 15 67 C14.34 67 13.68 67 13 67 C13 67.66 13 68.32 13 69 C9.06887285 69.5752869 6.53621487 69.12213063 3.32788086 66.87451172 C-0.17035161 63.71343945 -0.55193265 61.17212835 -0.79467773 56.53564453 C-0.79357019 53.89443266 -0.75579065 51.27132898 -0.68359375 48.6328125 C-0.67052407 47.22893754 -0.66056636 45.82503047 -0.65357971 44.42111206 C-0.62695959 40.74103324 -0.55829717 37.06291467 -0.48065186 33.38360596 C-0.40880722 29.62319454 -0.37702345 25.86246365 -0.34179688 22.1015625 C-0.26691369 14.73348508 -0.14758131 7.36701807 0 0 Z " fill="#FDEF39" transform="translate(513,464)"/>
<path d="M0 0 C1.58324573 0.01120031 3.16651236 0.01973655 4.74978638 0.02572632 C8.90301629 0.04855974 13.05497329 0.10743302 17.20770264 0.1739502 C21.45079328 0.23549283 25.69409102 0.26276672 29.9375 0.29296875 C38.25318624 0.35718391 46.56784072 0.45949404 54.8828125 0.5859375 C54.2228125 1.9059375 53.5628125 3.2259375 52.8828125 4.5859375 C52.3878125 3.5959375 52.3878125 3.5959375 51.8828125 2.5859375 C43.08552347 2.62398097 34.28871089 2.68332219 25.49176407 2.76984024 C21.40692795 2.8093457 17.32230839 2.84151887 13.23730469 2.85693359 C9.29481574 2.87208036 5.35292201 2.90648956 1.41069794 2.95424652 C-0.09313025 2.96908097 -1.5970434 2.9769797 -3.10094452 2.97782135 C-5.2082409 2.98018677 -7.31388659 3.00722688 -9.42089844 3.04003906 C-10.62002869 3.04892151 -11.81915894 3.05780396 -13.05462646 3.06695557 C-16.67218624 3.67998765 -17.85332221 4.7718108 -20.1171875 7.5859375 C-20.7771875 7.2559375 -21.4371875 6.9259375 -22.1171875 6.5859375 C-16.6645688 -1.52284537 -8.83858882 -0.18345557 0 0 Z " fill="#010204" transform="translate(387.1171875,451.4140625)"/>
<path d="M0 0 C22.44 0 44.88 0 68 0 C67.34 1.65 66.68 3.3 66 5 C65.505 4.01 65.505 4.01 65 3 C43.88 3 22.76 3 1 3 C0.67 2.01 0.34 1.02 0 0 Z " fill="#010103" transform="translate(640,452)"/>
<path d="M0 0 C6.08721231 -0.07401212 12.17416426 -0.12853646 18.26171875 -0.16479492 C20.33370524 -0.17990586 22.40565963 -0.20039541 24.47753906 -0.22631836 C27.45125233 -0.26260051 30.42454373 -0.27970298 33.3984375 -0.29296875 C34.32868744 -0.30845261 35.25893738 -0.32393646 36.21737671 -0.33988953 C37.07811798 -0.34011612 37.93885925 -0.34034271 38.82568359 -0.34057617 C39.58513275 -0.34723801 40.34458191 -0.35389984 41.12704468 -0.36076355 C41.74511993 -0.24171158 42.36319519 -0.12265961 43 0 C43.66 0.99 44.32 1.98 45 3 C44.67 3.99 44.34 4.98 44 6 C43.505 4.515 43.505 4.515 43 3 C28.48 3 13.96 3 -1 3 C-0.67 2.01 -0.34 1.02 0 0 Z " fill="#221C0B" transform="translate(654,592)"/>
<path d="M0 0 C0.99 0.99 1.98 1.98 3 3 C2.67 3.99 2.34 4.98 2 6 C-20.11 6 -42.22 6 -65 6 C-65 5.67 -65 5.34 -65 5 C-61.535 4.505 -61.535 4.505 -58 4 C-58 3.67 -58 3.34 -58 3 C-39.19 3 -20.38 3 -1 3 C-0.67 2.01 -0.34 1.02 0 0 Z " fill="#211D0E" transform="translate(706,608)"/>
<path d="M0 0 C1.24132187 0.00222061 2.48264374 0.00444122 3.76158142 0.00672913 C4.44447739 0.0065831 5.12737335 0.00643707 5.83096313 0.00628662 C8.09815092 0.00698575 10.36525752 0.01477811 12.63243103 0.02259827 C14.20041865 0.02446245 15.76840685 0.02588635 17.33639526 0.02688599 C21.47103981 0.03071117 25.60564944 0.04054146 29.74028015 0.05158997 C33.95627876 0.06180407 38.172283 0.0663836 42.38829041 0.07142639 C50.66630125 0.08216373 58.94428368 0.09924015 67.22227478 0.12025452 C67.22227478 0.45025452 67.22227478 0.78025452 67.22227478 1.12025452 C44.45227478 1.12025452 21.68227478 1.12025452 -1.77772522 1.12025452 C3.02598546 8.73318278 3.02598546 8.73318278 8.15977478 16.12025452 C10.22227478 19.12025452 10.22227478 19.12025452 10.22227478 22.12025452 C5.96785885 20.60151565 3.97303071 17.46135963 1.53477478 13.87025452 C1.13194275 13.30951233 0.72911072 12.74877014 0.31407166 12.17103577 C-2.19537265 8.53087033 -3.49627348 5.54493767 -3.77772522 1.12025452 C-2.77772522 0.12025452 -2.77772522 0.12025452 0 0 Z " fill="#FEFE3F" transform="translate(641.7777252197266,450.87974548339844)"/>
<path d="M0 0 C0.66 0 1.32 0 2 0 C2.00586624 0.74502274 2.01173248 1.49004547 2.01777649 2.25764465 C2.07566439 9.27652789 2.14771813 16.29508897 2.23571491 23.31364918 C2.28045551 26.92204877 2.31970305 30.53033451 2.34643555 34.13891602 C2.37243241 37.62099585 2.41280795 41.10263839 2.46318626 44.58444786 C2.48800764 46.56025199 2.49790939 48.5362252 2.50764465 50.51216125 C2.52743881 51.71317978 2.54723297 52.9141983 2.56762695 54.15161133 C2.57873001 55.21084305 2.58983307 56.27007477 2.60127258 57.36140442 C3.04687739 60.31021308 3.67563132 61.2097885 6 63 C5.505 63.99 5.505 63.99 5 65 C2.57071745 63.37767636 1.45674223 62.48051422 0 60 C-0.72982837 55.46679155 -0.58016465 50.96771129 -0.48828125 46.38671875 C-0.47894787 45.04866357 -0.47183423 43.71059123 -0.46684265 42.37251282 C-0.44781319 38.86217514 -0.39875053 35.35288302 -0.34332275 31.84295654 C-0.29204083 28.25677635 -0.26930974 24.67042608 -0.24414062 21.08398438 C-0.19062549 14.0555619 -0.10536371 7.02783124 0 0 Z " fill="#080505" transform="translate(628,464)"/>
<path d="M0 0 C0.33 0 0.66 0 1 0 C0.9779248 1.18851563 0.95584961 2.37703125 0.93310547 3.6015625 C0.86340309 8.09000604 0.86139881 12.57654537 0.87792969 17.06542969 C0.87600506 18.99326537 0.85668383 20.92117715 0.81835938 22.84863281 C0.57562853 35.80776282 1.98300884 44.38530985 9.85205078 54.8828125 C12 58 12 58 12 62 C11.34 62 10.68 62 10 62 C2.11584543 53.78657928 -2.0148598 43.8975166 -1.85546875 32.6171875 C-1.73082693 28.69354018 -1.47118172 24.78987213 -1.1875 20.875 C-1.0837914 18.83750733 -0.9854526 16.799734 -0.89257812 14.76171875 C-0.65663233 9.83572706 -0.34908696 4.91921442 0 0 Z " fill="#F6F03F" transform="translate(699,551)"/>
<path d="M0 0 C0.33 0 0.66 0 1 0 C0.98316162 1.31492432 0.96632324 2.62984863 0.94897461 3.98461914 C0.89776862 8.93332212 0.90689201 13.88049646 0.93286133 18.8293457 C0.9359153 20.95796407 0.92330293 23.08667182 0.89379883 25.21508789 C0.72689001 38.12169155 1.26815087 47.74589403 9.06860352 58.36499023 C11 61 11 61 11 63 C10.01 63 9.02 63 8 63 C-0.43776526 54.02068611 -1.90181561 44.83268581 -1.57260132 32.8477478 C-1.43403988 29.58364019 -1.24961801 26.32414801 -1.0625 23.0625 C-0.96894074 20.81853718 -0.87971459 18.57438931 -0.79492188 16.33007812 C-0.57983083 10.88357856 -0.31147928 5.44179429 0 0 Z " fill="#FBF840" transform="translate(587,547)"/>
<path d="M0 0 C16.5 0 33 0 50 0 C50 0.99 50 1.98 50 3 C33.83 3 17.66 3 1 3 C0.67 2.01 0.34 1.02 0 0 Z " fill="#362E11" transform="translate(384,592)"/>
<path d="M0 0 C-0.33 0.99 -0.66 1.98 -1 3 C-1.66 3 -2.32 3 -3 3 C-3 3.66 -3 4.32 -3 5 C-4.30553833 5.35421021 -4.30553833 5.35421021 -5.63745117 5.71557617 C-11.68728911 8.02648864 -16.73846282 12.38021772 -20 18 C-21.75544431 23.55695901 -21.3647936 29.43261211 -21.1875 35.1875 C-21.1805257 36.72719898 -21.17853736 38.26692897 -21.18164062 39.80664062 C-21.17848559 43.53987237 -21.1081924 47.26816 -21 51 C-21.33 51 -21.66 51 -22 51 C-22.31827458 46.59088216 -22.58691261 42.18221473 -22.81176758 37.76757812 C-22.89483913 36.26938671 -22.99096013 34.77185546 -23.10083008 33.27539062 C-23.99868426 20.86265994 -23.99868426 20.86265994 -21.54296875 16.2824707 C-19.80485933 14.28396438 -18.0680567 12.64670858 -16 11 C-12.259021 7.52345312 -12.259021 7.52345312 -10 3 C-7.0625 1.875 -7.0625 1.875 -4 1 C-2 0 -2 0 0 0 Z " fill="#D4C135" transform="translate(722,528)"/>
<path d="M0 0 C0.78375 0.04125 1.5675 0.0825 2.375 0.125 C1.735625 1.0325 1.09625 1.94 0.4375 2.875 C-2.34594691 7.26103756 -2.74628268 10.39771262 -2.83032227 15.53613281 C-2.85026749 16.61695129 -2.87021271 17.69776978 -2.89076233 18.81134033 C-2.90747482 19.97187927 -2.92418732 21.13241821 -2.94140625 22.328125 C-2.96218735 23.52105164 -2.98296844 24.71397827 -3.00437927 25.9430542 C-3.06976239 29.75364423 -3.12870776 33.56430314 -3.1875 37.375 C-3.23069589 39.95834046 -3.27431052 42.54167395 -3.31835938 45.125 C-3.42543234 51.45826052 -3.52721972 57.79158956 -3.625 64.125 C-3.955 64.125 -4.285 64.125 -4.625 64.125 C-4.67128835 56.07576017 -4.70685126 48.02657571 -4.72862434 39.97723579 C-4.73907298 36.2398217 -4.7532517 32.5024985 -4.77587891 28.76513672 C-4.79756904 25.160095 -4.80956049 21.55514083 -4.81475449 17.95003891 C-4.81845716 16.57288102 -4.82568734 15.19572806 -4.83646011 13.81860733 C-4.85092335 11.89360455 -4.85181648 9.96851413 -4.85205078 8.04345703 C-4.856492 6.94647491 -4.86093323 5.8494928 -4.86550903 4.7192688 C-4.52826198 1.08152809 -3.66224549 0.17439264 0 0 Z " fill="#483B14" transform="translate(519.625,535.875)"/>
<path d="M0 0 C0.33 0 0.66 0 1 0 C1.02314421 8.04925101 1.04092572 16.09848817 1.05181217 24.14776421 C1.05703644 27.8851425 1.06412584 31.62249807 1.07543945 35.35986328 C1.0862845 38.96489816 1.09228028 42.56991116 1.09487724 46.17496109 C1.09672857 47.55210846 1.1003436 48.92925459 1.10573006 50.30639267 C1.11296181 52.23143094 1.11340824 54.15649112 1.11352539 56.08154297 C1.115746 57.17852509 1.11796661 58.2755072 1.12025452 59.4057312 C1 62 1 62 0 64 C-0.99 64 -1.98 64 -3 64 C-3 64.66 -3 65.32 -3 66 C-4.98 66.495 -4.98 66.495 -7 67 C-6 64 -6 64 -3.47871399 62.6837616 C-0.73662591 61.22804437 -0.73662591 61.22804437 -0.36076355 58.32344055 C-0.3507708 56.70794563 -0.3507708 56.70794563 -0.34057617 55.05981445 C-0.31111153 53.22825554 -0.31111153 53.22825554 -0.28105164 51.35969543 C-0.28498428 50.04087875 -0.28891693 48.72206207 -0.29296875 47.36328125 C-0.27985407 45.9999114 -0.26455053 44.63656098 -0.24714661 43.27323914 C-0.20725497 39.68762997 -0.19710367 36.10252854 -0.19311523 32.51672363 C-0.18379135 28.85669511 -0.14638273 25.1969659 -0.11132812 21.53710938 C-0.04671035 14.35807049 -0.01350495 7.17933626 0 0 Z " fill="#ECCA23" transform="translate(610,465)"/>
<path d="M0 0 C-0.55280113 3.99859483 -2.53395423 5.98807717 -5.25 8.875 C-8.61717004 12.50531411 -11.87072845 16.16411875 -15 20 C-15.99 19.67 -16.98 19.34 -18 19 C-13.94191321 13.41084017 -9.66590615 8.0952147 -5 3 C-4.47792969 2.42894531 -3.95585937 1.85789062 -3.41796875 1.26953125 C-2 0 -2 0 0 0 Z " fill="#F2E404" transform="translate(384,590)"/>
<path d="M0 0 C0.98613281 0.04833984 1.97226562 0.09667969 2.98828125 0.14648438 C4.53708984 0.2305957 4.53708984 0.2305957 6.1171875 0.31640625 C7.15746094 0.36861328 8.19773437 0.42082031 9.26953125 0.47460938 C11.84403866 0.60451571 14.41818046 0.73948877 16.9921875 0.87890625 C16.9921875 1.20890625 16.9921875 1.53890625 16.9921875 1.87890625 C25.2421875 2.20890625 33.4921875 2.53890625 41.9921875 2.87890625 C41.9921875 3.20890625 41.9921875 3.53890625 41.9921875 3.87890625 C26.4821875 3.87890625 10.9721875 3.87890625 -5.0078125 3.87890625 C-5.0078125 3.21890625 -5.0078125 2.55890625 -5.0078125 1.87890625 C-5.6678125 1.54890625 -6.3278125 1.21890625 -7.0078125 0.87890625 C-4.45798817 -0.39600591 -2.84315826 -0.14705991 0 0 Z " fill="#EDC91E" transform="translate(657.0078125,472.12109375)"/>
<path d="M0 0 C0.33 0 0.66 0 1 0 C1.68094206 5.16134346 -0.57532194 8.19188 -3.3125 12.3125 C-3.71662109 12.95767578 -4.12074219 13.60285156 -4.53710938 14.26757812 C-5.73828125 16.11328125 -5.73828125 16.11328125 -8 19 C-8.99 19 -9.98 19 -11 19 C-11 19.66 -11 20.32 -11 21 C-11.66 21 -12.32 21 -13 21 C-11.38265784 16.23115111 -8.74802081 12.37633749 -5.9375 8.25 C-5.47794922 7.56550781 -5.01839844 6.88101563 -4.54492188 6.17578125 C-1.16919168 1.16919168 -1.16919168 1.16919168 0 0 Z " fill="#F2E605" transform="translate(651,591)"/>
<path d="M0 0 C0.78761719 0.01546875 1.57523437 0.0309375 2.38671875 0.046875 C4.3125 0.25 4.3125 0.25 5.3125 1.25 C5.39976223 3.03071246 5.41949041 4.8148314 5.41015625 6.59765625 C5.40693359 7.67724609 5.40371094 8.75683594 5.40039062 9.86914062 C5.39201172 11.00544922 5.38363281 12.14175781 5.375 13.3125 C5.37048828 14.45267578 5.36597656 15.59285156 5.36132812 16.76757812 C5.34949747 19.59510351 5.3330141 22.4225264 5.3125 25.25 C2.86242077 22.39016127 1.93870425 20.69380151 2.01953125 16.921875 C2.02919922 16.12265625 2.03886719 15.3234375 2.04882812 14.5 C2.07396484 13.675 2.09910156 12.85 2.125 12 C2.13853516 11.15953125 2.15207031 10.3190625 2.16601562 9.453125 C2.20126536 7.38514062 2.2550698 5.31748729 2.3125 3.25 C-1.3175 3.25 -4.9475 3.25 -8.6875 3.25 C-4.1703496 -0.1378628 -4.1703496 -0.1378628 0 0 Z " fill="#342B0F" transform="translate(490.6875,493.75)"/>
<path d="M0 0 C0.66 0.99 1.32 1.98 2 3 C2.86434308 4.23116851 3.73178505 5.46016466 4.6015625 6.6875 C5.60939433 8.12498645 6.61720614 9.56248693 7.625 11 C8.3984375 12.08667969 8.3984375 12.08667969 9.1875 13.1953125 C9.67476562 13.89398438 10.16203125 14.59265625 10.6640625 15.3125 C11.33622803 16.26576172 11.33622803 16.26576172 12.02197266 17.23828125 C13 19 13 19 13 22 C8.74558407 20.48126113 6.75075593 17.34110511 4.3125 13.75 C3.90966797 13.18925781 3.50683594 12.62851562 3.09179688 12.05078125 C0.58235257 8.41061581 -0.71854826 5.42468315 -1 1 C-0.67 0.67 -0.34 0.34 0 0 Z " fill="#F4E73E" transform="translate(639,451)"/>
<path d="M0 0 C0.66 0 1.32 0 2 0 C3 3 3 3 2.24316406 4.80932617 C0.9228557 6.94287936 -0.39851118 9.07349084 -1.75 11.1875 C-2.20632813 11.93708984 -2.66265625 12.68667969 -3.1328125 13.45898438 C-3.57882812 14.16732422 -4.02484375 14.87566406 -4.484375 15.60546875 C-4.89397461 16.25668701 -5.30357422 16.90790527 -5.72558594 17.57885742 C-6.14614258 18.04783447 -6.56669922 18.51681152 -7 19 C-7.99 19 -8.98 19 -10 19 C-9.46411411 14.08301189 -7.21674849 10.72079466 -4.5625 6.6875 C-4.15451172 6.04232422 -3.74652344 5.39714844 -3.32617188 4.73242188 C-2.27686704 3.11481492 -1.14441059 1.55177876 0 0 Z " fill="#F0E304" transform="translate(536,592)"/>
<path d="M0 0 C0.99 0.33 1.98 0.66 3 1 C4.57961159 1.11448477 6.16333852 1.17622932 7.74682617 1.20532227 C9.18798042 1.2352401 9.18798042 1.2352401 10.6582489 1.26576233 C11.69270645 1.28247482 12.727164 1.29918732 13.79296875 1.31640625 C15.38471672 1.3475779 15.38471672 1.3475779 17.00862122 1.37937927 C20.40151437 1.44481238 23.7944855 1.50373093 27.1875 1.5625 C29.48633622 1.60569114 31.78516453 1.64930562 34.08398438 1.69335938 C39.7225736 1.8004874 45.36124056 1.90226551 51 2 C51 2.33 51 2.66 51 3 C34.5 3 18 3 1 3 C0.67 2.01 0.34 1.02 0 0 Z " fill="#161709" transform="translate(381,539)"/>
<path d="M0 0 C3.20419855 0.28144987 4.00246392 1.00288207 6.140625 3.50390625 C6.83671875 4.51324219 7.5328125 5.52257812 8.25 6.5625 C8.95640625 7.57441406 9.6628125 8.58632813 10.390625 9.62890625 C10.92171875 10.41136719 11.4528125 11.19382812 12 12 C11.01 12.99 10.02 13.98 9 15 C7.49428254 12.87885041 5.99531321 10.75346385 4.5 8.625 C4.07074219 8.02171875 3.64148438 7.4184375 3.19921875 6.796875 C0 2.2265625 0 2.2265625 0 0 Z " fill="#F2E53D" transform="translate(525,455)"/>
<path d="M0 0 C-1.79639937 0.66924682 -3.59306302 1.33778843 -5.390625 2.00390625 C-7.30709332 2.73549221 -9.21188822 3.49784855 -11.109375 4.27734375 C-17.52718713 6.87610571 -23.0729776 8.64777852 -30 9 C-27.29546423 7.19697615 -25.2949243 6.31096986 -22.25390625 5.30859375 C-21.33416016 5.00373047 -20.41441406 4.69886719 -19.46679688 4.38476562 C-18.50837891 4.07216797 -17.54996094 3.75957031 -16.5625 3.4375 C-15.60794922 3.12103516 -14.65339844 2.80457031 -13.66992188 2.47851562 C-2.44347058 -1.22173529 -2.44347058 -1.22173529 0 0 Z " fill="#EFE419" transform="translate(446,287)"/>
<path d="M0 0 C0.99 0.33 1.98 0.66 3 1 C2.67 15.19 2.34 29.38 2 44 C1.67 44 1.34 44 1 44 C0.67 29.48 0.34 14.96 0 0 Z " fill="#13140A" transform="translate(450,461)"/>
<path d="M0 0 C4.47396622 1.34142769 6.041698 2.96301867 8.3125 7 C8.82425781 7.886875 9.33601562 8.77375 9.86328125 9.6875 C11 12 11 12 11 14 C10.01 14 9.02 14 8 14 C6.45292515 11.87314185 5.12377647 9.82700096 3.8125 7.5625 C3.44447266 6.95083984 3.07644531 6.33917969 2.69726562 5.70898438 C0 1.18018031 0 1.18018031 0 0 Z " fill="#F8EE3F" transform="translate(587,596)"/>
<path d="M0 0 C3.2826932 1.49076434 5.93077441 3.38620321 8.75 5.625 C9.94882812 6.57246094 9.94882812 6.57246094 11.171875 7.5390625 C11.77515625 8.02117188 12.3784375 8.50328125 13 9 C12.67 9.99 12.34 10.98 12 12 C9.99092002 10.57391198 7.99330486 9.13533968 6 7.6875 C5.42765625 7.28337891 4.8553125 6.87925781 4.265625 6.46289062 C2.78791356 5.38099475 1.38745891 4.19544451 0 3 C0 2.01 0 1.02 0 0 Z " fill="#F7E940" transform="translate(432,521)"/>
<path d="M0 0 C0.66 0.33 1.32 0.66 2 1 C1.44570313 1.40992188 0.89140625 1.81984375 0.3203125 2.2421875 C-0.40414062 2.78101563 -1.12859375 3.31984375 -1.875 3.875 C-2.59429688 4.40867187 -3.31359375 4.94234375 -4.0546875 5.4921875 C-6.62457067 7.48410498 -8.18012102 9.27018153 -10 12 C-12.875 12.625 -12.875 12.625 -16 13 C-17.33737094 13.31674575 -18.67288808 13.64270064 -20 14 C-17.91547499 11.78031474 -15.83625055 10.14284989 -13.2421875 8.5546875 C-12.53449219 8.11769531 -11.82679688 7.68070313 -11.09765625 7.23046875 C-9.99744141 6.55951172 -9.99744141 6.55951172 -8.875 5.875 C-7.41337145 4.97768717 -5.95239835 4.07930552 -4.4921875 3.1796875 C-3.84620605 2.78507324 -3.20022461 2.39045898 -2.53466797 1.98388672 C-1.01641424 1.0876277 -1.01641424 1.0876277 0 0 Z " fill="#F3E61C" transform="translate(682,791)"/>
<path d="M0 0 C0.33 1.32 0.66 2.64 1 4 C0.43410156 4.48210938 -0.13179687 4.96421875 -0.71484375 5.4609375 C-1.44832031 6.09257813 -2.18179688 6.72421875 -2.9375 7.375 C-3.66839844 8.00148438 -4.39929688 8.62796875 -5.15234375 9.2734375 C-7.08380906 10.87747714 -7.08380906 10.87747714 -8 13 C-8.66 13 -9.32 13 -10 13 C-10 13.66 -10 14.32 -10 15 C-15.53846154 15.36923077 -15.53846154 15.36923077 -17.875 13.5 C-18.24625 13.005 -18.6175 12.51 -19 12 C-18.67 11.34 -18.34 10.68 -18 10 C-16.68 10.99 -15.36 11.98 -14 13 C-10.63163511 11.54238919 -8.43494248 9.6759774 -5.875 7.0625 C-4.85019531 6.02802734 -4.85019531 6.02802734 -3.8046875 4.97265625 C-1.84155426 2.92738988 -1.84155426 2.92738988 0 0 Z " fill="#F7E907" transform="translate(536,518)"/>
<path d="M0 0 C0 3 0 3 -1.875 5.1875 C-4 7 -4 7 -6 7 C-6 7.66 -6 8.32 -6 9 C-6.99 9.66 -7.98 10.32 -9 11 C-10.19232613 13.05003955 -10.19232613 13.05003955 -11 15 C-11.99 15 -12.98 15 -14 15 C-11.5829799 7.74893971 -5.9489376 4.33175068 0 0 Z " fill="#F4E306" transform="translate(453,525)"/>
<path d="M0 0 C0.66 0 1.32 0 2 0 C1.526508 4.97166604 0.14907485 8.10996636 -3 12 C-3.99 12 -4.98 12 -6 12 C-4.68448876 7.39571066 -2.90803514 3.81679612 0 0 Z " fill="#F3E805" transform="translate(596,454)"/>
<path d="M0 0 C0.87840996 3.09720845 0.99435406 4.90645403 0 8 C-0.66 8 -1.32 8 -2 8 C-1.938125 8.928125 -1.87625 9.85625 -1.8125 10.8125 C-2 14 -2 14 -3.375 15.875 C-5 17 -5 17 -7 17 C-5.24009216 11.08030998 -2.60305395 5.58365008 0 0 Z " fill="#F7E628" transform="translate(792,659)"/>
<path d="M0 0 C-1.4943708 3.64201845 -3.57667822 5.6040654 -6.5625 8.125 C-9.7474573 10.69470499 -9.7474573 10.69470499 -12 14 C-12.99 13.67 -13.98 13.34 -15 13 C-12.88094537 10.82722286 -10.75527122 8.66173092 -8.625 6.5 C-8.02171875 5.87996094 -7.4184375 5.25992188 -6.796875 4.62109375 C-6.21679688 4.03457031 -5.63671875 3.44804688 -5.0390625 2.84375 C-4.50490723 2.29912109 -3.97075195 1.75449219 -3.42041016 1.19335938 C-2 0 -2 0 0 0 Z " fill="#F6E805" transform="translate(652,518)"/>
<path d="M0 0 C1.32 1.32 2.64 2.64 4 4 C3.67 4.99 3.34 5.98 3 7 C2.77439324 9.39254576 2.59151405 11.78928123 2.4375 14.1875 C2.35371094 15.45980469 2.26992188 16.73210937 2.18359375 18.04296875 C2.12300781 19.01878906 2.06242188 19.99460937 2 21 C1.67 21 1.34 21 1 21 C0.83188272 18.25008168 0.6654519 15.50007888 0.5 12.75 C0.45230469 11.97269531 0.40460937 11.19539063 0.35546875 10.39453125 C0.28779297 9.26337891 0.28779297 9.26337891 0.21875 8.109375 C0.17685547 7.41811523 0.13496094 6.72685547 0.09179688 6.01464844 C0.00052902 4.01161035 0 2.0051163 0 0 Z " fill="#D8C32A" transform="translate(536,468)"/>
<path d="M0 0 C-1.32 0.33 -2.64 0.66 -4 1 C-4 1.66 -4 2.32 -4 3 C-5.98 3 -7.96 3 -10 3 C-10.33 3.66 -10.66 4.32 -11 5 C-13.31 5 -15.62 5 -18 5 C-14.99390278 2.99593518 -12.40757305 1.96923742 -9 0.8125 C-7.948125 0.44769531 -6.89625 0.08289063 -5.8125 -0.29296875 C-3 -1 -3 -1 0 0 Z " fill="#F6E822" transform="translate(617,827)"/>
<path d="M0 0 C0.33 1.32 0.66 2.64 1 4 C-0.28716647 5.00578589 -1.57988658 6.00446798 -2.875 7 C-3.95394531 7.8353125 -3.95394531 7.8353125 -5.0546875 8.6875 C-7 10 -7 10 -9 10 C-7.61811547 6.78956118 -6.07578097 4.95063635 -3.375 2.75 C-2.74335937 2.22921875 -2.11171875 1.7084375 -1.4609375 1.171875 C-0.73777344 0.59179688 -0.73777344 0.59179688 0 0 Z " fill="#F5E006" transform="translate(721,602)"/>
<path d="M0 0 C0.33 0.66 0.66 1.32 1 2 C-1.80804268 4.96404505 -4.18315774 7.44499019 -8 9 C-8 9.66 -8 10.32 -8 11 C-8.66 11 -9.32 11 -10 11 C-8.55218207 7.55571735 -6.72305391 5.63869038 -3.875 3.25 C-3.15054688 2.63640625 -2.42609375 2.0228125 -1.6796875 1.390625 C-0.84824219 0.70226562 -0.84824219 0.70226562 0 0 Z " fill="#F5E205" transform="translate(610,601)"/>
<path d="M0 0 C0.33 0 0.66 0 1 0 C1.33 6.27 1.66 12.54 2 19 C1.01 18.34 0.02 17.68 -1 17 C-1.0562279 14.03471821 -0.95683804 11.31149974 -0.6875 8.375 C-0.62626953 7.57320312 -0.56503906 6.77140625 -0.50195312 5.9453125 C-0.34851492 3.96241876 -0.17604307 1.98101481 0 0 Z " fill="#241B08" transform="translate(249,555)"/>
<path d="M0 0 C0.66 0.33 1.32 0.66 2 1 C1.69381595 4.67420866 1.24228216 5.78135513 -1.5625 8.3125 C-2.366875 8.869375 -3.17125 9.42625 -4 10 C-4.33 9.34 -4.66 8.68 -5 8 C-4.00390625 6.0546875 -4.00390625 6.0546875 -2.5625 3.875 C-2.08941406 3.15054687 -1.61632812 2.42609375 -1.12890625 1.6796875 C-0.75636719 1.12539063 -0.38382812 0.57109375 0 0 Z " fill="#F6E12F" transform="translate(291,396)"/>
<path d="M0 0 C6.35945776 1.24086981 9.18350306 5.14469324 13 10 C12.67 10.66 12.34 11.32 12 12 C11.46890625 11.44570313 10.9378125 10.89140625 10.390625 10.3203125 C9.68421875 9.59585938 8.9778125 8.87140625 8.25 8.125 C7.20585938 7.04605469 7.20585938 7.04605469 6.140625 5.9453125 C4.14877783 4.13520321 2.4572342 3.05151914 0 2 C0 1.34 0 0.68 0 0 Z " fill="#FDF03D" transform="translate(634,530)"/>
<path d="M0 0 C0 0.99 0 1.98 0 3 C-1.96185416 4.71140469 -3.96302383 6.37873325 -6 8 C-6.33 8.66 -6.66 9.32 -7 10 C-7.99 9.67 -8.98 9.34 -10 9 C-6.7 6.03 -3.4 3.06 0 0 Z " fill="#FBED01" transform="translate(340,603)"/>
<path d="M0 0 C-0.34879632 3.25543229 -1.02133261 4.01873107 -3.5625 6.25 C-4.366875 6.8275 -5.17125 7.405 -6 8 C-6.33 7.01 -6.66 6.02 -7 5 C-2.25 0 -2.25 0 0 0 Z " fill="#FDF40A" transform="translate(384,590)"/>
<path d="M0 0 C0.66 0.66 1.32 1.32 2 2 C1.2575 2.721875 0.515 3.44375 -0.25 4.1875 C-3.01267269 6.90711047 -3.01267269 6.90711047 -5.1875 9.8125 C-5.785625 10.534375 -6.38375 11.25625 -7 12 C-7.66 12 -8.32 12 -9 12 C-7.55575365 8.76138697 -5.74227753 6.38030837 -3.375 3.75 C-2.74335938 3.04359375 -2.11171875 2.3371875 -1.4609375 1.609375 C-0.97882813 1.07828125 -0.49671875 0.5471875 0 0 Z " fill="#F5E920" transform="translate(314,366)"/>
<path d="M0 0 C0.66 0.33 1.32 0.66 2 1 C0.93283928 2.20205464 -0.15438337 3.38632333 -1.25 4.5625 C-2.15492188 5.55443359 -2.15492188 5.55443359 -3.078125 6.56640625 C-3.71234375 7.03949219 -4.3465625 7.51257813 -5 8 C-6.32 7.67 -7.64 7.34 -9 7 C-6.03 4.69 -3.06 2.38 0 0 Z " fill="#F4E71B" transform="translate(700,778)"/>
<path d="M0 0 C2.46800047 1.15173355 4.04783565 2.04783565 6 4 C6.33 5.32 6.66 6.64 7 8 C4.36 6.02 1.72 4.04 -1 2 C-0.67 1.34 -0.34 0.68 0 0 Z " fill="#F8EC2F" transform="translate(373,535)"/>
<path d="M0 0 C0.33 0.99 0.66 1.98 1 3 C0.401875 3.268125 -0.19625 3.53625 -0.8125 3.8125 C-2.97224808 4.98493467 -4.35790256 6.19369282 -6 8 C-6.99 7.67 -7.98 7.34 -9 7 C-6.03716687 4.61327331 -3.05729491 2.2646629 0 0 Z " fill="#F7E005" transform="translate(340,525)"/>
<path d="M0 0 C2 3 2 3 1.7578125 4.97265625 C1.54898438 5.66230469 1.34015625 6.35195313 1.125 7.0625 C0.25224613 9.98457419 0.25224613 9.98457419 0 13 C-0.99 13 -1.98 13 -3 13 C-2.01 8.71 -1.02 4.42 0 0 Z " fill="#191506" transform="translate(767,603)"/>
<path d="M0 0 C0.66 0 1.32 0 2 0 C5.22265625 5.2734375 5.22265625 5.2734375 6 7 C5.67 7.66 5.34 8.32 5 9 C4.34 9 3.68 9 3 9 C2.01 6.03 1.02 3.06 0 0 Z " fill="#F4DF38" transform="translate(801,441)"/>
<path d="M0 0 C2 1.75 2 1.75 4 4 C4 5.32 4 6.64 4 8 C3.34 8 2.68 8 2 8 C0.3125 5.6875 0.3125 5.6875 -1 3 C-0.67 2.01 -0.34 1.02 0 0 Z " fill="#F8EE44" transform="translate(707,605)"/>
<path d="M0 0 C4.67692308 1.47692308 4.67692308 1.47692308 6.3125 4.125 C6.539375 4.74375 6.76625 5.3625 7 6 C6.34 6 5.68 6 5 6 C4.67 6.66 4.34 7.32 4 8 C2.68 5.36 1.36 2.72 0 0 Z " fill="#E6DB3A" transform="translate(587,596)"/>
<path d="M0 0 C3.33333333 1.66666667 6.66666667 3.33333333 10 5 C8.02 5.99 8.02 5.99 6 7 C1.125 2.25 1.125 2.25 0 0 Z " fill="#FBEF17" transform="translate(378,539)"/>
<path d="M0 0 C0 3.57575896 -1.08840607 5.05295935 -3 8 C-4.32 7.67 -5.64 7.34 -7 7 C-4.69 4.69 -2.38 2.38 0 0 Z " fill="#EAD815" transform="translate(730,751)"/>
<path d="M0 0 C0.93065133 2.60582371 1.14917407 3.64198224 0.0625 6.25 C-0.4634375 7.11625 -0.4634375 7.11625 -1 8 C-1.99 8 -2.98 8 -4 8 C-2.87548273 5.0280615 -1.77706209 2.66559313 0 0 Z " fill="#E4CE12" transform="translate(443,532)"/>
<path d="M0 0 C-0.33 0.99 -0.66 1.98 -1 3 C-1.66 3 -2.32 3 -3 3 C-3 3.66 -3 4.32 -3 5 C-4.65 4.67 -6.3 4.34 -8 4 C-2.7826087 0 -2.7826087 0 0 0 Z " fill="#F6E407" transform="translate(722,528)"/>
<path d="M0 0 C0.33 0.66 0.66 1.32 1 2 C0.67 2.66 0.34 3.32 0 4 C-0.99 4 -1.98 4 -3 4 C-3 4.66 -3 5.32 -3 6 C-4.32 6.33 -5.64 6.66 -7 7 C-5.66667905 3.00003714 -3.5042173 2.16217663 0 0 Z " fill="#F6E305" transform="translate(610,525)"/>
<path d="M0 0 C0.7425 0.61875 1.485 1.2375 2.25 1.875 C4.48801188 3.60437281 6.43739987 4.86106661 9 6 C8.67 6.66 8.34 7.32 8 8 C4.63820226 6.55922954 2.40843732 4.75249979 0 2 C0 1.34 0 0.68 0 0 Z " fill="#040405" transform="translate(325,523)"/>
<path d="M0 0 C0.66 0 1.32 0 2 0 C1.125 4.75 1.125 4.75 0 7 C-0.66 7 -1.32 7 -2 7 C-1.125 1.125 -1.125 1.125 0 0 Z " fill="#F3E606" transform="translate(440,455)"/>
<path d="M0 0 C0.66 0 1.32 0 2 0 C2 1.65 2 3.3 2 5 C1.01 5 0.02 5 -1 5 C-1 5.66 -1 6.32 -1 7 C-1.66 7 -2.32 7 -3 7 C-1.125 2.25 -1.125 2.25 0 0 Z " fill="#EEDA04" transform="translate(641,605)"/>
<path d="M0 0 C0.66 0 1.32 0 2 0 C2 0.66 2 1.32 2 2 C2.99 2.33 3.98 2.66 5 3 C4.01 3.99 3.02 4.98 2 6 C1.34 5.34 0.68 4.68 0 4 C0 2.68 0 1.36 0 0 Z " fill="#F0DD39" transform="translate(369,531)"/>
<path d="M0 0 C0.99 0.33 1.98 0.66 3 1 C2.67 1.66 2.34 2.32 2 3 C-0.64860427 3.59355614 -3.29197322 3.74209269 -6 4 C-4.03617993 2.49440461 -2.21736634 1.10868317 0 0 Z " fill="#F5E220" transform="translate(393,305)"/>
</svg>
